# xmcd
#
# Track frame offsets: 
#        300
#        4109
#        22542
#        39277
#        65745
#        86189
#        111795
#        133563
#        155726
#        173538
#        192533
#        215211
#
# Disc length: 3166 seconds
#
# Revision: 5
# Processed by: cddbd v1.5.2PL0 Copyright (c) Steve Scherf et al.
# Submitted via: ExactAudioCopy v0.99pb5
#
DISCID=a10c5a0c
DTITLE=Bonnie Raitt - Bonnie Raitt And Friends
DYEAR=2006
DGENRE=Blues Rock
TTITLE0=Introduction
TTITLE1=Unnecessarily Mercenary (featuring Jon Cleary)
TTITLE2=I Will Not Be Broken
TTITLE3=God Was In The Water
TTITLE4=Gnawin' On It
TTITLE5=You (featuring Alison Krauss)
TTITLE6=Love Letter (featuring Keb' Mo')
TTITLE7=Two Lights In The Nighttime (featuring Ben Harper)
TTITLE8=Well, Well, Well (featuring Ben Harper)
TTITLE9=Something To Talk About
TTITLE10=I Don't Want Anything To Change (featuring Norah Jones)
TTITLE11=Love Sneakin' Up On You (featuring All Special Guests)
EXTD=
EXTT0=
EXTT1=
EXTT2=
EXTT3=
EXTT4=
EXTT5=
EXTT6=
EXTT7=
EXTT8=
EXTT9=
EXTT10=
EXTT11=
PLAYORDER=
